<svg width="24" height="24" viewBox="0 0 24 24" fill="none" xmlns="http://www.w3.org/2000/svg">
<g clip-path="url(#clip0_1193_13719)">
<path fill-rule="evenodd" clip-rule="evenodd" d="M8.0863 9.16364C8.0863 6.89634 9.74543 5 12.0863 5C14.4272 5 16.0863 6.89633 16.0863 9.16364C16.0863 11.4288 14.173 13 12.0863 13C9.99955 13 8.0863 11.4288 8.0863 9.16364ZM12.0863 7C10.9681 7 10.0863 7.87899 10.0863 9.16364C10.0863 10.1712 10.9446 11 12.0863 11C13.228 11 14.0863 10.1712 14.0863 9.16364C14.0863 7.879 13.2045 7 12.0863 7Z" fill="#9593A5"/>
<path fill-rule="evenodd" clip-rule="evenodd" d="M4.22183 19.7782C2.23122 17.7876 1 15.0376 1 12C1 5.92487 5.92487 1 12 1C18.0751 1 23 5.92487 23 12C23 14.9359 21.8498 17.6032 19.9754 19.5758C17.9864 21.6691 15.182 22.9801 12.0711 22.9998C12.0474 22.9999 12.0237 23 12 23C8.96243 23 6.21243 21.7688 4.22183 19.7782ZM18.8759 17.8074C20.2011 16.24 21 14.2133 21 12C21 7.02944 16.9706 3 12 3C7.02944 3 3 7.02944 3 12C3 14.2133 3.79894 16.24 5.12415 17.8074C6.73674 15.7914 9.21756 14.5 12 14.5C14.7824 14.5 17.2633 15.7914 18.8759 17.8074ZM17.4168 19.188C16.1733 17.5526 14.2082 16.5 12 16.5C9.79177 16.5 7.82671 17.5526 6.58322 19.188C8.00394 20.2603 9.75263 20.9212 11.6521 20.9934C11.7675 20.9978 11.8835 21 12 21C12.0097 21 12.0194 21 12.0291 21C12.1307 20.9996 12.2318 20.9976 12.3325 20.994C14.2379 20.9248 15.9922 20.2632 17.4168 19.188Z" fill="#9593A5"/>
</g>
<defs>
<clipPath id="clip0_1193_13719">
<rect width="24" height="24" fill="white"/>
</clipPath>
</defs>
</svg>
