<svg width="24" height="24" viewBox="0 0 24 24" fill="none" xmlns="http://www.w3.org/2000/svg">
<path d="M11.9996 16.665C14.5866 16.665 16.7688 14.7386 17.0897 12.1715L17.1556 11.6445C17.2354 11.006 16.7825 10.4238 16.1441 10.344C15.5057 10.2642 14.9234 10.717 14.8436 11.3555L14.7777 11.8825C14.6026 13.2836 13.4116 14.335 11.9996 14.335C10.5876 14.335 9.39661 13.2836 9.22148 11.8825L9.1556 11.3555C9.07579 10.717 8.49354 10.2642 7.85509 10.344C7.21665 10.4238 6.76378 11.006 6.84359 11.6445L6.90947 12.1715C7.23035 14.7386 9.41255 16.665 11.9996 16.665Z" fill="#E5761E"/>
<path fill-rule="evenodd" clip-rule="evenodd" d="M6.99211 5.36667C7.24937 2.79407 9.41416 0.834961 11.9996 0.834961C14.585 0.834961 16.7498 2.79407 17.0071 5.36667L17.1039 6.33496H18.1475C19.8014 6.33496 21.1764 7.60826 21.3032 9.25722L21.9415 17.5544C22.1121 19.7728 20.5602 21.7543 18.3654 22.1201C14.1506 22.8225 9.84858 22.8225 5.63377 22.1201C3.43903 21.7543 1.88708 19.7728 2.05774 17.5544L2.69598 9.25722C2.82282 7.60826 4.19783 6.33496 5.85166 6.33496H6.89528L6.99211 5.36667ZM14.6886 5.59851L14.7623 6.33496H9.2369L9.31055 5.59851C9.4487 4.21701 10.6112 3.16496 11.9996 3.16496C13.388 3.16496 14.5505 4.21701 14.6886 5.59851ZM5.85166 8.66496C5.41534 8.66496 5.05258 9.00089 5.01911 9.43592L4.38087 17.7331C4.3028 18.748 5.01278 19.6544 6.01682 19.8218C9.97802 20.482 14.0212 20.482 17.9824 19.8218C18.9864 19.6544 19.6964 18.748 19.6183 17.7331L18.9801 9.43592C18.9466 9.00089 18.5838 8.66496 18.1475 8.66496H5.85166Z" fill="#E5761E"/>
</svg>
