<svg width="24" height="24" viewBox="0 0 24 24" fill="none" xmlns="http://www.w3.org/2000/svg">
<path d="M13.165 2C12.5216 2 12 2.52159 12 3.165C12 3.80841 12.5216 4.33 13.165 4.33H21.835C22.4784 4.33 23 3.80841 23 3.165C23 2.52159 22.4784 2 21.835 2H13.165Z" fill="#E5761E"/>
<path fill-rule="evenodd" clip-rule="evenodd" d="M1 17C1 15.3431 2.34315 14 4 14H6C7.65685 14 9 15.3431 9 17V19C9 20.6569 7.65685 22 6 22H4C2.34315 22 1 20.6569 1 19V17ZM4 16.33H6C6.37003 16.33 6.67 16.63 6.67 17V19C6.67 19.37 6.37003 19.67 6 19.67H4C3.62997 19.67 3.33 19.37 3.33 19V17C3.33 16.63 3.62997 16.33 4 16.33Z" fill="#E5761E"/>
<path d="M13.165 14C12.5216 14 12 14.5216 12 15.165C12 15.8084 12.5216 16.33 13.165 16.33H21.835C22.4784 16.33 23 15.8084 23 15.165C23 14.5216 22.4784 14 21.835 14H13.165Z" fill="#E5761E"/>
<path d="M12 20.165C12 19.5216 12.5216 19 13.165 19H19.835C20.4784 19 21 19.5216 21 20.165C21 20.8084 20.4784 21.33 19.835 21.33H13.165C12.5216 21.33 12 20.8084 12 20.165Z" fill="#E5761E"/>
<path fill-rule="evenodd" clip-rule="evenodd" d="M4 2C2.34315 2 1 3.34315 1 5V7C1 8.65685 2.34315 10 4 10H6C7.65685 10 9 8.65685 9 7V5C9 3.34315 7.65685 2 6 2H4ZM6 4.33H4C3.62997 4.33 3.33 4.62997 3.33 5V7C3.33 7.37003 3.62997 7.67 4 7.67H6C6.37003 7.67 6.67 7.37003 6.67 7V5C6.67 4.62997 6.37003 4.33 6 4.33Z" fill="#E5761E"/>
<path d="M13.165 7C12.5216 7 12 7.52159 12 8.165C12 8.80841 12.5216 9.33 13.165 9.33H19.835C20.4784 9.33 21 8.80841 21 8.165C21 7.52159 20.4784 7 19.835 7H13.165Z" fill="#E5761E"/>
</svg>
