<svg width="22" height="22" viewBox="0 0 22 22" fill="none" xmlns="http://www.w3.org/2000/svg">
<path d="M1.5 8.65351C1.5 7.62417 2.02773 6.6667 2.89802 6.11704L8.86403 2.34903C10.1688 1.52497 11.8312 1.52498 13.136 2.34903L19.102 6.11704C19.9723 6.6667 20.5 7.62417 20.5 8.65351V19.5C20.5 20.3284 19.8284 21 19 21H15.5C14.6716 21 14 20.3284 14 19.5V15C14 13.3431 12.6569 12 11 12V12C9.34315 12 8 13.3431 8 15V19.5C8 20.3284 7.32843 21 6.5 21H3C2.17157 21 1.5 20.3284 1.5 19.5V8.65351Z" stroke="#161A22" stroke-width="2"/>
</svg>
