<svg width="25" height="24" viewBox="0 0 25 24" fill="none" xmlns="http://www.w3.org/2000/svg">
<path d="M4.5 11V18C4.5 19.6569 5.84315 21 7.5 21H12.4999H17.5C19.1569 21 20.5 19.6569 20.5 18V11" stroke="#9593A5" stroke-width="2"/>
<path d="M7.34514 3C6.21087 3 5.12157 3.47535 4.4344 4.37777C3.56123 5.52446 2.5 7.13205 2.5 8.17214C2.5 10.0201 3.5 12 5.80473 12C7.60294 12 8.59915 10.6581 8.9007 10.1726C8.94418 10.1026 9.05628 10.1023 9.10058 10.1718C9.40964 10.6565 10.451 12 12.5 12C14.549 12 15.5904 10.6566 15.8994 10.1718C15.9437 10.1023 16.0558 10.1026 16.0993 10.1726C16.4009 10.6581 17.3971 12 19.1954 12C21.5 12 22.5 10.0201 22.5 8.17214C22.5 6.85602 21.6239 5.65183 20.7138 4.5547C19.9056 3.58035 18.6905 3 17.4246 3H7.34514Z" stroke="#9593A5" stroke-width="2"/>
<path d="M10 17C10 16.4477 10.4477 16 11 16H14C14.5523 16 15 16.4477 15 17V21H10V17Z" stroke="#9593A5" stroke-width="2"/>
</svg>
