<svg width="24" height="24" viewBox="0 0 24 24" fill="none" xmlns="http://www.w3.org/2000/svg">
<path d="M0.334961 2.99996C0.334964 2.35654 0.856555 1.83496 1.49997 1.83496L2.72497 1.83497C4.45636 1.83497 5.91973 3.11485 6.15232 4.8282L7.19893 11.1076C7.33653 11.9331 8.00927 12.5461 8.81545 12.6309L12.9169 12.338C12.9866 12.333 13.0552 12.3342 13.1223 12.3412L17.6122 12.0087C18.4422 11.9472 19.1269 11.3348 19.2802 10.5168L20.3549 4.78529C20.4735 4.1529 21.0822 3.73636 21.7146 3.85494C22.347 3.97351 22.7636 4.58229 22.645 5.21468L21.5703 10.9462C21.2222 12.8029 19.6682 14.1928 17.7843 14.3323L9.31664 14.9595C9.14828 14.972 8.98135 14.9743 8.8165 14.9668L8.0067 15.0246C7.53241 15.0585 7.16494 15.4532 7.16494 15.9287C7.16494 16.4292 7.57072 16.835 8.07128 16.835L18.9999 16.835C19.6434 16.835 20.1649 17.3566 20.1649 18C20.1649 18.4966 19.8542 18.9206 19.4166 19.0883C19.7771 19.45 19.9999 19.949 19.9999 20.5C19.9999 21.6046 19.1045 22.5 17.9999 22.5C16.8954 22.5 15.9999 21.6046 15.9999 20.5C15.9999 19.987 16.1931 19.519 16.5107 19.165L9.48918 19.165C9.80676 19.519 9.99994 19.987 9.99994 20.5C9.99994 21.6046 9.10451 22.5 7.99994 22.5C6.89537 22.5 5.99994 21.6046 5.99994 20.5C5.99994 19.8479 6.31202 19.2687 6.79497 18.9036C5.64223 18.4084 4.83494 17.2628 4.83494 15.9287C4.83494 14.9923 5.23396 14.1438 5.87594 13.5507C5.38031 12.9857 5.03239 12.2811 4.90064 11.4907L3.85074 5.19152C3.848 5.17506 3.84561 5.15864 3.84358 5.14224C3.76784 4.58287 3.29016 4.16497 2.72496 4.16497L1.49996 4.16496C0.856544 4.16496 0.334958 3.64337 0.334961 2.99996Z" fill="#161A22"/>
</svg>
