<svg width="24" height="24" viewBox="0 0 24 24" fill="none" xmlns="http://www.w3.org/2000/svg">
<path d="M5.59287 5.21343C6.0608 4.77182 6.08213 4.03449 5.64052 3.56656C5.1989 3.09864 4.46158 3.0773 3.99365 3.51892C1.74243 5.64354 0.334961 8.65838 0.334961 12C0.334961 15.3417 1.74243 18.3566 3.99365 20.4812C4.46158 20.9228 5.1989 20.9015 5.64052 20.4335C6.08213 19.9656 6.0608 19.2283 5.59287 18.7867C3.78853 17.0838 2.66496 14.674 2.66496 12C2.66496 9.32611 3.78853 6.91631 5.59287 5.21343Z" fill="#E5761E"/>
<path d="M20.0063 3.51892C19.5383 3.0773 18.801 3.09864 18.3594 3.56656C17.9178 4.03449 17.9391 4.77182 18.407 5.21343C20.2114 6.91631 21.335 9.32611 21.335 12C21.335 14.674 20.2114 17.0838 18.407 18.7867C17.9391 19.2283 17.9178 19.9656 18.3594 20.4335C18.801 20.9015 19.5383 20.9228 20.0063 20.4812C22.2575 18.3566 23.665 15.3417 23.665 12C23.665 8.65838 22.2575 5.64354 20.0063 3.51892Z" fill="#E5761E"/>
<path d="M8.84643 7.08707C9.29842 7.54498 9.29363 8.2826 8.83573 8.73459C7.99527 9.5642 7.47429 10.7189 7.47429 12C7.47429 13.2811 7.99527 14.4358 8.83573 15.2654C9.29363 15.7174 9.29842 16.455 8.84643 16.9129C8.39443 17.3708 7.65681 17.3756 7.1989 16.9236C5.93129 15.6724 5.14429 13.9269 5.14429 12C5.14429 10.0731 5.93129 8.32763 7.1989 7.07637C7.65681 6.62437 8.39443 6.62916 8.84643 7.08707Z" fill="#E5761E"/>
<path d="M15.1535 7.08707C15.6055 6.62916 16.3431 6.62437 16.801 7.07637C18.0686 8.32763 18.8556 10.0731 18.8556 12C18.8556 13.9269 18.0686 15.6724 16.801 16.9236C16.3431 17.3756 15.6055 17.3708 15.1535 16.9129C14.7015 16.455 14.7063 15.7174 15.1642 15.2654C16.0046 14.4358 16.5256 13.2811 16.5256 12C16.5256 10.7189 16.0046 9.5642 15.1642 8.73459C14.7063 8.2826 14.7015 7.54498 15.1535 7.08707Z" fill="#E5761E"/>
<path d="M14 12.0001C14 13.1047 13.1045 14.0001 12 14.0001C10.8954 14.0001 9.99996 13.1047 9.99996 12.0001C9.99996 10.8955 10.8954 10.0001 12 10.0001C13.1045 10.0001 14 10.8955 14 12.0001Z" fill="#E5761E"/>
</svg>
