<svg width="24" height="24" viewBox="0 0 24 24" fill="none" xmlns="http://www.w3.org/2000/svg">
<path fill-rule="evenodd" clip-rule="evenodd" d="M3 10C3 5.02944 7.02944 1 12 1C16.9706 1 21 5.02944 21 10V11.3163C21 11.7541 21.1739 12.1739 21.4835 12.4835L21.9645 12.9645C22.6275 13.6275 23 14.5268 23 15.4645C23 17.4171 21.4171 19 19.4645 19H16.165C16.165 21.3003 14.3003 23.165 12 23.165C9.69973 23.165 7.835 21.3003 7.835 19H4.53553C2.58291 19 1 17.4171 1 15.4645C1 14.5268 1.37249 13.6275 2.03553 12.9645L2.51655 12.4835C2.8261 12.1739 3 11.7541 3 11.3163V10ZM5.33 11.3163V10C5.33 6.31626 8.31626 3.33 12 3.33C15.6837 3.33 18.67 6.31626 18.67 10V11.3163C18.67 12.372 19.0894 13.3845 19.8359 14.131L20.3169 14.612C20.543 14.8381 20.67 15.1447 20.67 15.4645C20.67 16.1303 20.1303 16.67 19.4645 16.67H4.53553C3.86974 16.67 3.33 16.1303 3.33 15.4645C3.33 15.1447 3.45701 14.8381 3.68309 14.612L4.16411 14.131C4.91062 13.3845 5.33 12.372 5.33 11.3163ZM10.165 19C10.165 20.0134 10.9866 20.835 12 20.835C13.0134 20.835 13.835 20.0134 13.835 19H10.165Z" fill="#161A22"/>
</svg>
