<svg width="24" height="24" viewBox="0 0 24 24" fill="none" xmlns="http://www.w3.org/2000/svg">
<path fill-rule="evenodd" clip-rule="evenodd" d="M11.5035 3.24475C11.6385 2.61568 11.2381 1.99622 10.609 1.86116C9.9799 1.7261 9.36045 2.12657 9.22538 2.75565L8.34951 6.8352L5.17953 6.8352C4.53611 6.8352 4.01453 7.35679 4.01453 8.0002C4.01453 8.64361 4.53611 9.1652 5.17953 9.1652L7.84926 9.1652L6.63191 14.8352H3.46187C2.81846 14.8352 2.29688 15.3568 2.29688 16.0002C2.29688 16.6436 2.81846 17.1652 3.46188 17.1652H6.13166L5.3608 20.7556C5.22573 21.3847 5.62621 22.0042 6.25529 22.1392C6.88436 22.2743 7.50382 21.8738 7.63888 21.2448L8.51476 17.1652L13.1334 17.1652L12.3625 20.7556C12.2274 21.3847 12.6279 22.0042 13.257 22.1392C13.8861 22.2743 14.5055 21.8738 14.6406 21.2448L15.5165 17.1652H18.7498C19.3933 17.1652 19.9148 16.6436 19.9148 16.0002C19.9148 15.3568 19.3932 14.8352 18.7498 14.8352H16.0167L17.2341 9.1652L20.4632 9.1652C21.1066 9.1652 21.6282 8.64362 21.6282 8.0002C21.6282 7.35679 21.1066 6.8352 20.4632 6.8352L17.7343 6.8352L18.5052 3.24475C18.6402 2.61568 18.2398 1.99622 17.6107 1.86116C16.9816 1.7261 16.3622 2.12657 16.2271 2.75565L15.3512 6.8352L10.7326 6.8352L11.5035 3.24475ZM10.2324 9.1652L9.01501 14.8352L13.6336 14.8352L14.851 9.1652L10.2324 9.1652Z" fill="#E5761E"/>
</svg>
