<svg width="25" height="24" viewBox="0 0 25 24" fill="none" xmlns="http://www.w3.org/2000/svg">
<path fill-rule="evenodd" clip-rule="evenodd" d="M11.75 2C6.64137 2 2.5 6.14137 2.5 11.25C2.5 16.3586 6.64137 20.5 11.75 20.5C13.9441 20.5 15.9597 19.7361 17.5455 18.4597L20.7928 21.707C21.1833 22.0975 21.8165 22.0975 22.207 21.707C22.5975 21.3165 22.5975 20.6833 22.207 20.2928L18.9597 17.0455C20.2361 15.4597 21 13.4441 21 11.25C21 6.14137 16.8586 2 11.75 2ZM4.5 11.25C4.5 7.24594 7.74594 4 11.75 4C15.7541 4 19 7.24594 19 11.25C19 15.2541 15.7541 18.5 11.75 18.5C7.74594 18.5 4.5 15.2541 4.5 11.25Z" fill="#9593A5"/>
</svg>
