<svg width="24" height="24" viewBox="0 0 24 24" fill="none" xmlns="http://www.w3.org/2000/svg">
<path fill-rule="evenodd" clip-rule="evenodd" d="M16.4563 4.14524C13.5306 3.41383 10.4699 3.41382 7.54421 4.14524C5.81966 4.57638 4.43491 5.8587 3.87277 7.5451L3.81822 7.70875C3.30791 9.2397 3.22989 10.8818 3.59276 12.4542L3.79374 13.3251C4.13824 14.8179 5.23531 16.0236 6.68908 16.507L8.29779 17.042C8.72367 17.1836 9.01104 17.582 9.01104 18.0308V20.4915C9.01104 20.8326 9.41045 21.0172 9.67021 20.7962L13.5178 17.5233C13.8551 17.2364 14.2541 17.0312 14.6838 16.9238L17.1799 16.2998C18.7041 15.9187 19.886 14.7152 20.2393 13.1843L20.4077 12.4543C20.7707 10.8818 20.6926 9.23966 20.1823 7.70863L20.1277 7.54506C19.5656 5.85868 18.1808 4.57638 16.4563 4.14524ZM7.05914 2.20495C10.3033 1.39392 13.6972 1.39392 16.9413 2.20496C19.3292 2.80193 21.2467 4.57749 22.0251 6.91257L22.0796 7.07614C22.7064 8.95631 22.8022 10.973 22.3565 12.9041L22.188 13.6341C21.6657 15.8974 19.9184 17.6767 17.665 18.24L15.1689 18.8641C15.038 18.8968 14.9164 18.9593 14.8136 19.0467L10.9661 22.3196C9.40748 23.6454 7.01104 22.5377 7.01104 20.4915V18.7218L6.05799 18.4048C3.94259 17.7014 2.34624 15.947 1.84496 13.7749L1.64398 12.9039C1.19836 10.9729 1.29417 8.95637 1.92086 7.07629L1.97541 6.91265C2.75378 4.57753 4.6712 2.80194 7.05914 2.20495Z" fill="#9593A5"/>
</svg>
