<svg width="40" height="40" viewBox="0 0 40 40" fill="none" xmlns="http://www.w3.org/2000/svg">
<rect width="40" height="40" rx="20" fill="#666666" fill-opacity="0.3"/>
<path fill-rule="evenodd" clip-rule="evenodd" d="M13.4393 24.4393C12.8536 25.0251 12.8536 25.9749 13.4393 26.5607C14.0251 27.1464 14.9749 27.1464 15.5607 26.5607L20 22.1213L24.4393 26.5607C25.0251 27.1464 25.9749 27.1464 26.5607 26.5607C27.1464 25.9749 27.1464 25.0251 26.5607 24.4393L22.1213 20L26.5607 15.5607C27.1464 14.9749 27.1464 14.0251 26.5607 13.4393C25.9749 12.8536 25.0251 12.8536 24.4393 13.4393L20 17.8787L15.5607 13.4393C14.9749 12.8536 14.0251 12.8536 13.4393 13.4393C12.8536 14.0251 12.8536 14.9749 13.4393 15.5607L17.8787 20L13.4393 24.4393Z" fill="white"/>
</svg>
