<svg width="14" height="14" viewBox="0 0 14 14" fill="none" xmlns="http://www.w3.org/2000/svg">
<path fill-rule="evenodd" clip-rule="evenodd" d="M7 2.04199C4.95355 2.04199 3.42199 3.08451 2.41216 4.2117C1.90699 4.77558 1.52717 5.36584 1.27252 5.87034C1.14518 6.12261 1.04765 6.3564 0.981298 6.55761C0.917039 6.75248 0.875 6.93753 0.875 7.08517C0.875 7.23353 0.917355 7.41642 0.982002 7.60756C1.0487 7.80475 1.14665 8.03239 1.27433 8.27702C1.5297 8.76628 1.91027 9.33554 2.41606 9.87807C3.42778 10.9633 4.95841 11.9587 7 11.9587C9.64502 11.9587 11.4285 10.2912 12.3482 8.91216C12.6 8.53461 12.7911 8.17318 12.9202 7.86473C13.045 7.5668 13.125 7.2879 13.125 7.08517C13.125 6.93753 13.083 6.75248 13.0187 6.55761C12.9524 6.3564 12.8548 6.12261 12.7275 5.87034C12.4728 5.36584 12.093 4.77558 11.5878 4.2117C10.578 3.08451 9.04645 2.04199 7 2.04199ZM5.39583 6.70866C6.12071 6.70866 6.70833 6.12103 6.70833 5.39616C6.70833 5.14742 6.63914 4.91485 6.51896 4.71663C6.67419 4.6841 6.8351 4.66699 7 4.66699C8.28866 4.66699 9.33333 5.71166 9.33333 7.00033C9.33333 8.28899 8.28866 9.33366 7 9.33366C5.71134 9.33366 4.66667 8.28899 4.66667 7.00033C4.66667 6.83542 4.68377 6.67452 4.71631 6.51928C4.91452 6.63947 5.1471 6.70866 5.39583 6.70866Z" fill="white"/>
</svg>
